<?xml version="1.0" encoding="UTF-8"?>
<!DOCTYPE svg  PUBLIC '-//W3C//DTD SVG 1.1//EN'  'http://www.w3.org/Graphics/SVG/1.1/DTD/svg11.dtd'>
<svg enable-background="new 0 0 37.4 35.8"
	 version="1.1"
	 viewBox="0 0 37.4 35.8"
	 xml:space="preserve"
	 xmlns="http://www.w3.org/2000/svg"
	 xmlns:xlink="http://www.w3.org/1999/xlink">
<symbol id="g" viewBox="0.014 -6.932 11.336 6.888">
		<path d="m10.85-1.4c0.033-0.233 0.183-1.483 0.45-3.75 0.1-0.934 0.05-1.467-0.15-1.6-0.4-0.033-0.816-0.083-1.25-0.15-0.533-0.1-1.717 0.033-3.55 0.4-2.1 0.433-3.483 0.717-4.15 0.85-1.133 0.233-1.833 0.467-2.1 0.7-0.3 0.3 0.183 0.45 1.45 0.45 0.967 0 1.717 0.05 2.25 0.15 0.5 0.133 1.133 0.2 1.9 0.2 1.133 0 1.917 0.1 2.35 0.3 0.367 0.2 0.683 0.567 0.95 1.1 0.333 0.667 0.667 1.467 1 2.4 0.333 0.633 0.617 0.283 0.85-1.05z"
			  clip-rule="evenodd"
			  fill="#fff"
			  fill-rule="evenodd"/>
</symbol>
	<symbol id="h" viewBox="0.01 -5.936 15.545 5.98">
		<path d="m10.4-0.6c2.5-0.6 4.083-1.316 4.75-2.15 0.6-0.8 0.533-1.233-0.2-1.3-0.633-0.067-2.167 0.1-4.6 0.5-2 0.367-3.5 0.417-4.5 0.15-0.233-0.033-1.133-0.417-2.7-1.15-0.7-0.333-1.4-0.784-2.1-1.35-0.367-0.167-0.667 0.25-0.9 1.25-0.3 1.133-0.117 2.167 0.55 3.1 0.6 0.833 1.383 1.317 2.35 1.45 2.233 0.3 4.683 0.133 7.35-0.5z"
			  clip-rule="evenodd"
			  fill="#77A7B5"
			  fill-rule="evenodd"/>
</symbol>
	<symbol id="i" viewBox="0.022 -33.859 35.323 33.902">
		<path d="m26.5-1.35c4.7-0.7 7.483-1.566 8.35-2.6 0.367-0.433 0.483-1.466 0.35-3.1-0.3-3.4-0.467-5.5-0.5-6.3-0.034-1.933 0.1-4.5 0.4-7.7 0.233-2.633 0.3-4.133 0.2-4.5-0.1-0.434-1.167-1.284-3.2-2.55-2.8-1.7-4.383-2.683-4.75-2.95-1.6-1.2-2.633-1.934-3.1-2.2-1.067-0.533-2.233-0.717-3.5-0.55-0.933 0.133-3 0.6-6.2 1.4-3.167 0.767-5.233 1.217-6.2 1.35-1.934 0.2-3.3 0.383-4.1 0.55-1.3 0.267-2.05 0.767-2.25 1.5-0.233 0.933-0.517 4.883-0.85 11.85-0.033 0.367-0.283 1.883-0.75 4.55-0.367 2.1-0.467 3.434-0.3 4 0.133 0.333 1.117 1.05 2.95 2.15 3 1.733 4.867 2.85 5.6 3.35 4.1 2.733 7.367 3.684 9.8 2.85 0.6-0.2 3.283-0.567 8.05-1.1z"
			  clip-rule="evenodd"
			  fill="#B3E1F0"
			  fill-rule="evenodd"/>
</symbol>
	<symbol id="j" viewBox="-0.004 -23.153 18.439 23.171">
		<path d="m17.85-8.05c-0.233-3.4-0.35-5.233-0.35-5.5 0-0.367 0.25-2.333 0.75-5.9 0.333-2.433 0.217-3.667-0.35-3.7-0.5-0.033-2.083 0.233-4.75 0.8-3 0.667-5.033 1.05-6.1 1.15-2-0.033-3.35-0.033-4.05 0-1.067 0.067-1.7 0.517-1.9 1.35s-0.35 3.184-0.45 7.05c-0.033 2.033-0.083 4.35-0.15 6.95-0.167 1.533-0.3 2.683-0.4 3.45-0.167 1.433-0.133 2.183 0.1 2.25 0.833 0.267 2.067 0.217 3.7-0.15 2.467-0.534 4.083-0.833 4.85-0.9 2.967-0.333 4.85-0.566 5.65-0.7 1.934-0.367 3.033-0.917 3.3-1.65 0.267-0.633 0.317-2.133 0.15-4.5z"
			  clip-rule="evenodd"
			  fill="#fff"
			  fill-rule="evenodd"/>
</symbol>
	<symbol id="k" viewBox="-0.001 -26.226 14.603 26.248">
		<path d="m13.25 0c0.6 0.3 1-2.433 1.2-8.2 0.1-2.966 0.15-6.383 0.15-10.25 0.033-0.867-0.417-1.6-1.35-2.2-1.433-0.7-2.65-1.283-3.65-1.75-1-0.5-2.717-1.5-5.15-3-1.967-1.067-3.067-1.1-3.3-0.1s-0.483 3.833-0.75 8.5c-0.133 2.367-0.267 4.95-0.4 7.75-0.033 0.6 1.1 1.717 3.4 3.35 1.267 0.9 3.117 2.133 5.55 3.7 1.1 0.7 1.95 1.184 2.55 1.45 1.033 0.433 1.617 0.683 1.75 0.75z"
			  clip-rule="evenodd"
			  fill="#fff"
			  fill-rule="evenodd"/>
</symbol>
	<symbol id="l" viewBox="-0.01 -10.032 30.76 10.039">
		<path d="m3.9-7.65c-4.2 0.2-5.017 0.883-2.45 2.05 3.2 1.467 5.933 2.967 8.2 4.5 0.967 0.633 2.184 1 3.65 1.1 0.767 0.033 2.583-0.05 5.45-0.25 2.667-0.167 5.317-0.517 7.95-1.05 3-0.6 4.333-1.167 4-1.7s-2.017-1.75-5.05-3.65c-2.933-1.8-4.95-2.9-6.05-3.3-0.667-0.233-2.733 0.034-6.2 0.8-4.2 0.9-7.367 1.4-9.5 1.5z"
			  clip-rule="evenodd"
			  fill-rule="evenodd"/>
</symbol>
	<path d="m36.75 14.15c-0.066 2.033 0.066 4.734 0.4 8.1 0.233 2.8 0.3 4.384 0.199 4.75-0.133 0.5-1.25 1.4-3.35 2.7-3.033 1.866-4.7 2.899-5 3.1-1.767 1.334-2.85 2.117-3.25 2.351-1.167 0.6-2.417 0.8-3.75 0.6-1-0.167-3.184-0.65-6.55-1.45-3.333-0.833-5.517-1.333-6.55-1.5-2.066-0.2-3.5-0.383-4.3-0.55-1.4-0.267-2.2-0.783-2.4-1.55-0.199-0.767-0.399-2.801-0.599-6.101-0.167-3.533-0.283-5.683-0.35-6.449-0.033-0.367-0.283-1.967-0.75-4.8-0.4-2.234-0.5-3.651-0.3-4.251 0.1-0.333 1.133-1.067 3.1-2.2 2.934-1.733 4.9-2.933 5.9-3.6 4.367-2.867 7.816-3.867 10.35-3 0.634 0.2 3.483 0.583 8.55 1.15 4.966 0.733 7.9 1.65 8.8 2.75 0.399 0.466 0.517 1.566 0.35 3.3-0.3 3.567-0.467 5.783-0.5 6.65zm-0.3 7.75c-0.3-3.2-0.434-5.767-0.4-7.7 0.033-0.8 0.2-2.9 0.5-6.3 0.134-1.633 0.017-2.667-0.35-3.1-0.867-1.033-3.65-1.9-8.351-2.6-4.766-0.533-7.449-0.9-8.049-1.1-2.433-0.833-5.7 0.117-9.8 2.85-0.733 0.5-2.6 1.617-5.6 3.35-1.833 1.1-2.817 1.817-2.95 2.15-0.167 0.566-0.067 1.9 0.3 4 0.467 2.667 0.717 4.183 0.75 4.55 0.333 6.967 0.617 10.917 0.85 11.85 0.2 0.733 0.95 1.233 2.25 1.5 0.8 0.167 2.167 0.35 4.1 0.55 0.966 0.133 3.033 0.583 6.2 1.35 3.2 0.8 5.267 1.267 6.2 1.4 1.267 0.166 2.434-0.017 3.5-0.551 0.467-0.267 1.5-1 3.101-2.199 0.366-0.267 1.95-1.25 4.75-2.95 2.033-1.267 3.1-2.117 3.2-2.55 0.099-0.367 0.033-1.867-0.201-4.5z"
		  clip-rule="evenodd"
		  fill="#9FD9F0"
		  fill-rule="evenodd"/>
	<use transform="matrix(1 0 0 -1 4.5 23.1)"
		 x="-0.01"
		 y="-10.032"
		 width="30.76"
		 height="10.039"
		 enable-background="new"
		 opacity=".3711"
		 xlink:href="#l"/>
	<use transform="matrix(1 0 0 -1 3.3999 2.0498)"
		 x="-0.001"
		 y="-26.226"
		 width="14.603"
		 height="26.248"
		 enable-background="new"
		 opacity=".3398"
		 xlink:href="#k"/>
	<use transform="matrix(1 0 0 -1 17.5 1.8999)"
		 x="-0.004"
		 y="-23.153"
		 width="18.439"
		 height="23.171"
		 enable-background="new"
		 opacity=".6914"
		 xlink:href="#j"/>
	<use transform="matrix(1 0 0 -1 1.3501 .8501)"
		 x="0.022"
		 y="-33.859"
		 width="35.323"
		 height="33.902"
		 enable-background="new"
		 opacity=".8203"
		 xlink:href="#i"/>
	<path d="m23.8 9.6c2.9-0.5 6.167-1.667 9.8-3.5-1.033 0.867-2.566 1.933-4.6 3.2-1.333 0.833-2.2 1.684-2.6 2.55-0.101 0.2-0.434 1.383-1 3.55-0.567 2.1-1.051 6.917-1.45 14.45-0.467-2.5-0.7-4.666-0.7-6.5 0-1.633-0.134-3.517-0.4-5.649-0.3-2.434-0.649-3.883-1.05-4.35-0.366-0.434-1.233-0.783-2.6-1.05-2.1-0.3-3.967-0.583-5.6-0.85-2.6-0.367-4.467-0.5-5.6-0.4-1.333 0.167-2.317 0.684-2.95 1.55-0.765 1.163-1.181 3.462-1.25 6.9v-0.95c0-0.633-0.117-2.05-0.35-4.25-0.267-2.2-0.4-3.533-0.4-4 0-0.633 0.784-1.5 2.35-2.6 1.267-0.867 2.6-1.633 4-2.3 0.333-0.167 1.6-0.85 3.8-2.05 1.6-0.867 2.683-1.383 3.25-1.55 0.966-0.267 2.267-0.083 3.899 0.55-0.767 0-1.633 0.1-2.6 0.3-1.9 0.333-4.2 1.434-6.9 3.3-1.767 1.2-2.45 2.1-2.05 2.7 0.333 0.467 1.5 0.783 3.5 0.95 3.233 0.233 5.067 0.35 5.5 0.35 2.135 0.066 4.135-0.051 6.001-0.351z"
		  clip-rule="evenodd"
		  fill="#FBF2F5"
		  fill-rule="evenodd"/>
	<path d="m4.05 24.2c0.1 0.5 0.4 1.033 0.9 1.6 0.466 0.5 0.7 0.884 0.7 1.15 0 0.6-0.333 1.233-1 1.899l-0.15-0.449-0.45-4.2z"
		  clip-rule="evenodd"
		  fill="#FBF2F5"
		  fill-rule="evenodd"/>
	<path d="m34.65 19.3c0.066-1.1 0.166-1.917 0.3-2.45 0.166-0.533 0.25-0.25 0.25 0.85 0 0.767 0.149 2.333 0.45 4.7 0.166 2.066 0.017 3.3-0.45 3.699-0.767 0.667-2.634 1.867-5.601 3.601 1.733-1.634 3.117-3.134 4.15-4.5 0.667-0.834 1-1.851 1-3.05-0.099-1.3-0.133-2.25-0.099-2.85z"
		  clip-rule="evenodd"
		  fill="#FBF2F5"
		  fill-rule="evenodd"/>
	<use transform="matrix(1 0 0 -1 5.25 13.1)"
		 x="0.01"
		 y="-5.936"
		 width="15.545"
		 height="5.98"
		 enable-background="new"
		 opacity=".25"
		 xlink:href="#h"/>
	<use transform="matrix(1 0 0 -1 10.9 25.75)"
		 x="0.014"
		 y="-6.932"
		 width="11.336"
		 height="6.888"
		 enable-background="new"
		 opacity=".6406"
		 xlink:href="#g"/>
	<g fill="none" fill-rule="evenodd" transform="scale(2.4,3) translate(0 -1.9)">
		<polygon stroke-width="0.2"
				 stroke="#fff"
				 fill="#231F20"
				 points="4 6 0 6 0 0 4 0 4 1 1 1 1 2 3.5 2 3.5 3 1 3 1 5 4 5"
				 transform="translate(6 5)"/>
 </g>

</svg>
